<mxfile host="app.diagrams.net" agent="Mozilla/5.0 (Windows NT 10.0; Win64; x64) AppleWebKit/537.36 (KHTML, like Gecko) Chrome/131.0.0.0 Safari/537.36 OPR/116.0.0.0 (Edition std-2)" version="26.0.16">
  <diagram name="Страница — 1" id="hXfLbRQwdwvqlKaVEqN-">
    <mxGraphModel dx="1008" dy="1738" grid="1" gridSize="10" guides="1" tooltips="1" connect="1" arrows="1" fold="1" page="1" pageScale="1" pageWidth="827" pageHeight="1169" math="0" shadow="0">
      <root>
        <mxCell id="0" />
        <mxCell id="1" parent="0" />
        <mxCell id="cefj4zW1aezcJrP6mx4r-33" style="edgeStyle=orthogonalEdgeStyle;rounded=0;orthogonalLoop=1;jettySize=auto;html=1;entryX=0.5;entryY=0;entryDx=0;entryDy=0;" edge="1" parent="1" source="cefj4zW1aezcJrP6mx4r-2" target="cefj4zW1aezcJrP6mx4r-10">
          <mxGeometry relative="1" as="geometry">
            <Array as="points">
              <mxPoint x="70" />
              <mxPoint x="280" />
            </Array>
          </mxGeometry>
        </mxCell>
        <mxCell id="cefj4zW1aezcJrP6mx4r-2" value="Guest" style="shape=umlActor;verticalLabelPosition=bottom;verticalAlign=top;html=1;outlineConnect=0;" vertex="1" parent="1">
          <mxGeometry x="40" y="30" width="30" height="60" as="geometry" />
        </mxCell>
        <mxCell id="cefj4zW1aezcJrP6mx4r-22" style="edgeStyle=orthogonalEdgeStyle;rounded=0;orthogonalLoop=1;jettySize=auto;html=1;entryX=0.5;entryY=1;entryDx=0;entryDy=0;" edge="1" parent="1" source="cefj4zW1aezcJrP6mx4r-3" target="cefj4zW1aezcJrP6mx4r-15">
          <mxGeometry relative="1" as="geometry">
            <Array as="points">
              <mxPoint x="70" y="380" />
              <mxPoint x="360" y="380" />
            </Array>
          </mxGeometry>
        </mxCell>
        <mxCell id="cefj4zW1aezcJrP6mx4r-25" style="edgeStyle=orthogonalEdgeStyle;rounded=0;orthogonalLoop=1;jettySize=auto;html=1;" edge="1" parent="1" source="cefj4zW1aezcJrP6mx4r-3" target="cefj4zW1aezcJrP6mx4r-16">
          <mxGeometry relative="1" as="geometry">
            <mxPoint x="55" y="510" as="targetPoint" />
            <Array as="points">
              <mxPoint x="55" y="490" />
              <mxPoint x="590" y="490" />
            </Array>
          </mxGeometry>
        </mxCell>
        <mxCell id="cefj4zW1aezcJrP6mx4r-3" value="User" style="shape=umlActor;verticalLabelPosition=bottom;verticalAlign=top;html=1;outlineConnect=0;" vertex="1" parent="1">
          <mxGeometry x="40" y="270" width="30" height="60" as="geometry" />
        </mxCell>
        <mxCell id="cefj4zW1aezcJrP6mx4r-4" value="Server" style="shape=umlActor;verticalLabelPosition=bottom;verticalAlign=top;html=1;outlineConnect=0;" vertex="1" parent="1">
          <mxGeometry x="710" y="30" width="30" height="60" as="geometry" />
        </mxCell>
        <mxCell id="cefj4zW1aezcJrP6mx4r-34" value="" style="edgeStyle=orthogonalEdgeStyle;rounded=0;orthogonalLoop=1;jettySize=auto;html=1;" edge="1" parent="1" source="cefj4zW1aezcJrP6mx4r-10">
          <mxGeometry relative="1" as="geometry">
            <mxPoint x="280" y="150" as="targetPoint" />
          </mxGeometry>
        </mxCell>
        <mxCell id="cefj4zW1aezcJrP6mx4r-10" value="Sign UP" style="ellipse;whiteSpace=wrap;html=1;aspect=fixed;" vertex="1" parent="1">
          <mxGeometry x="250" y="10" width="60" height="60" as="geometry" />
        </mxCell>
        <mxCell id="cefj4zW1aezcJrP6mx4r-11" value="Sign IN" style="ellipse;whiteSpace=wrap;html=1;aspect=fixed;" vertex="1" parent="1">
          <mxGeometry x="250" y="100" width="60" height="60" as="geometry" />
        </mxCell>
        <mxCell id="cefj4zW1aezcJrP6mx4r-12" value="Set ship" style="ellipse;whiteSpace=wrap;html=1;aspect=fixed;" vertex="1" parent="1">
          <mxGeometry x="200" y="280" width="80" height="80" as="geometry" />
        </mxCell>
        <mxCell id="cefj4zW1aezcJrP6mx4r-13" value="Shoot" style="ellipse;whiteSpace=wrap;html=1;aspect=fixed;" vertex="1" parent="1">
          <mxGeometry x="440" y="280" width="80" height="80" as="geometry" />
        </mxCell>
        <mxCell id="cefj4zW1aezcJrP6mx4r-32" style="edgeStyle=orthogonalEdgeStyle;rounded=0;orthogonalLoop=1;jettySize=auto;html=1;" edge="1" parent="1" source="cefj4zW1aezcJrP6mx4r-14" target="cefj4zW1aezcJrP6mx4r-3">
          <mxGeometry relative="1" as="geometry" />
        </mxCell>
        <mxCell id="cefj4zW1aezcJrP6mx4r-14" value="Start game" style="ellipse;whiteSpace=wrap;html=1;aspect=fixed;" vertex="1" parent="1">
          <mxGeometry x="250" y="190" width="60" height="60" as="geometry" />
        </mxCell>
        <mxCell id="cefj4zW1aezcJrP6mx4r-15" value="Check stats" style="ellipse;whiteSpace=wrap;html=1;aspect=fixed;" vertex="1" parent="1">
          <mxGeometry x="320" y="280" width="80" height="80" as="geometry" />
        </mxCell>
        <mxCell id="cefj4zW1aezcJrP6mx4r-26" style="edgeStyle=orthogonalEdgeStyle;rounded=0;orthogonalLoop=1;jettySize=auto;html=1;" edge="1" parent="1" source="cefj4zW1aezcJrP6mx4r-16" target="cefj4zW1aezcJrP6mx4r-4">
          <mxGeometry relative="1" as="geometry" />
        </mxCell>
        <mxCell id="cefj4zW1aezcJrP6mx4r-16" value="Give UP" style="ellipse;whiteSpace=wrap;html=1;aspect=fixed;" vertex="1" parent="1">
          <mxGeometry x="550" y="280" width="80" height="80" as="geometry" />
        </mxCell>
        <mxCell id="cefj4zW1aezcJrP6mx4r-20" style="edgeStyle=orthogonalEdgeStyle;rounded=0;orthogonalLoop=1;jettySize=auto;html=1;entryX=0.065;entryY=0.245;entryDx=0;entryDy=0;entryPerimeter=0;" edge="1" parent="1" source="cefj4zW1aezcJrP6mx4r-3" target="cefj4zW1aezcJrP6mx4r-12">
          <mxGeometry relative="1" as="geometry" />
        </mxCell>
        <mxCell id="cefj4zW1aezcJrP6mx4r-24" style="edgeStyle=orthogonalEdgeStyle;rounded=0;orthogonalLoop=1;jettySize=auto;html=1;entryX=0.625;entryY=0.985;entryDx=0;entryDy=0;entryPerimeter=0;" edge="1" parent="1" source="cefj4zW1aezcJrP6mx4r-3" target="cefj4zW1aezcJrP6mx4r-13">
          <mxGeometry relative="1" as="geometry">
            <Array as="points">
              <mxPoint x="55" y="440" />
              <mxPoint x="490" y="440" />
            </Array>
          </mxGeometry>
        </mxCell>
        <mxCell id="cefj4zW1aezcJrP6mx4r-29" value="" style="endArrow=classic;html=1;rounded=0;" edge="1" parent="1">
          <mxGeometry width="50" height="50" relative="1" as="geometry">
            <mxPoint x="500" y="270" as="sourcePoint" />
            <mxPoint x="690" y="90" as="targetPoint" />
          </mxGeometry>
        </mxCell>
        <mxCell id="cefj4zW1aezcJrP6mx4r-30" value="" style="endArrow=classic;html=1;rounded=0;" edge="1" parent="1">
          <mxGeometry width="50" height="50" relative="1" as="geometry">
            <mxPoint x="400" y="290" as="sourcePoint" />
            <mxPoint x="680" y="60" as="targetPoint" />
          </mxGeometry>
        </mxCell>
        <mxCell id="cefj4zW1aezcJrP6mx4r-31" value="" style="endArrow=classic;html=1;rounded=0;" edge="1" parent="1">
          <mxGeometry width="50" height="50" relative="1" as="geometry">
            <mxPoint x="280" y="290" as="sourcePoint" />
            <mxPoint x="660" y="30" as="targetPoint" />
          </mxGeometry>
        </mxCell>
        <mxCell id="cefj4zW1aezcJrP6mx4r-37" value="" style="endArrow=open;endSize=12;dashed=1;html=1;rounded=0;" edge="1" parent="1" target="cefj4zW1aezcJrP6mx4r-3">
          <mxGeometry width="160" relative="1" as="geometry">
            <mxPoint x="240" y="140" as="sourcePoint" />
            <mxPoint x="70" y="200" as="targetPoint" />
            <Array as="points">
              <mxPoint x="60" y="140" />
            </Array>
          </mxGeometry>
        </mxCell>
        <mxCell id="cefj4zW1aezcJrP6mx4r-42" value="" style="endArrow=classic;html=1;rounded=0;curved=1;" edge="1" parent="1">
          <mxGeometry width="50" height="50" relative="1" as="geometry">
            <mxPoint x="320" y="20" as="sourcePoint" />
            <mxPoint x="640" y="10" as="targetPoint" />
            <Array as="points">
              <mxPoint x="350" y="20" />
            </Array>
          </mxGeometry>
        </mxCell>
        <mxCell id="cefj4zW1aezcJrP6mx4r-43" value="" style="endArrow=classic;html=1;rounded=0;curved=1;" edge="1" parent="1">
          <mxGeometry width="50" height="50" relative="1" as="geometry">
            <mxPoint x="310" y="110" as="sourcePoint" />
            <mxPoint x="600" y="40" as="targetPoint" />
            <Array as="points">
              <mxPoint x="340" y="110" />
            </Array>
          </mxGeometry>
        </mxCell>
        <mxCell id="cefj4zW1aezcJrP6mx4r-44" value="" style="endArrow=classic;html=1;rounded=0;curved=1;" edge="1" parent="1">
          <mxGeometry width="50" height="50" relative="1" as="geometry">
            <mxPoint x="320" y="200" as="sourcePoint" />
            <mxPoint x="570" y="70" as="targetPoint" />
            <Array as="points">
              <mxPoint x="350" y="200" />
            </Array>
          </mxGeometry>
        </mxCell>
      </root>
    </mxGraphModel>
  </diagram>
</mxfile>
